<?xml version="1.0" encoding="UTF-8"?>
<svg id="Layer_1" xmlns="http://www.w3.org/2000/svg" version="1.1" xmlns:xlink="http://www.w3.org/1999/xlink" viewBox="0 0 1024 1024">
  <!-- Generator: Adobe Illustrator 29.4.0, SVG Export Plug-In . SVG Version: 2.1.0 Build 152)  -->
  <defs>
    <style>
      .st0 {
        fill: url(#linear-gradient2);
      }

      .st1 {
        fill: #e87622;
      }

      .st2 {
        fill: #4eb7dd;
      }

      .st3 {
        fill: url(#linear-gradient10);
      }

      .st4 {
        fill: #a1def1;
      }

      .st5 {
        fill: #f59126;
      }

      .st6 {
        fill: #fff;
      }

      .st7 {
        fill: #016ca7;
      }

      .st8 {
        fill: url(#linear-gradient1);
      }

      .st9 {
        fill: url(#linear-gradient9);
      }

      .st10 {
        fill: url(#linear-gradient8);
      }

      .st11 {
        fill: #9cd4f4;
      }

      .st12 {
        fill: #6bc8e6;
      }

      .st13 {
        fill: #f88c22;
      }

      .st14 {
        fill: #7ac3ed;
      }

      .st15 {
        fill: #0a63a2;
      }

      .st16 {
        fill: #196bab;
      }

      .st17 {
        fill: #1398cf;
      }

      .st18 {
        fill: #e2f1f9;
      }

      .st19 {
        fill: #004f8c;
      }

      .st20 {
        fill: url(#linear-gradient7);
      }

      .st21 {
        fill: url(#linear-gradient4);
      }

      .st22 {
        fill: #f7b25f;
      }

      .st23 {
        fill: url(#linear-gradient5);
      }

      .st24 {
        fill: url(#linear-gradient3);
      }

      .st25 {
        display: none;
      }

      .st26 {
        fill: #eb570a;
      }

      .st27 {
        fill: #1f90c9;
      }

      .st28 {
        fill: url(#linear-gradient6);
      }

      .st29 {
        fill: #36a3d2;
      }

      .st30 {
        fill: #d5d6d8;
      }

      .st31 {
        fill: #0a80bc;
      }

      .st32 {
        fill: #c5e9f8;
      }

      .st33 {
        fill: url(#linear-gradient);
      }

      .st34 {
        fill: #f17416;
      }
    </style>
    <linearGradient id="linear-gradient" x1="757.38" y1="1059.35" x2="676.7" y2="1440.91" gradientTransform="translate(-54.94 -378.14) scale(.63)" gradientUnits="userSpaceOnUse">
      <stop offset="0" stop-color="#70d0ec"/>
      <stop offset="1" stop-color="#2d9dcf"/>
    </linearGradient>
    <linearGradient id="linear-gradient1" x1="1029.9" y1="1265.55" x2="857.24" y2="1491.04" gradientTransform="translate(-54.94 -378.14) scale(.63)" gradientUnits="userSpaceOnUse">
      <stop offset="0" stop-color="#1f9bcd"/>
      <stop offset="1" stop-color="#0b7fbe"/>
    </linearGradient>
    <linearGradient id="linear-gradient2" x1="999.38" y1="181.22" x2="388.28" y2="767.3" gradientUnits="userSpaceOnUse">
      <stop offset="0" stop-color="#74c8eb"/>
      <stop offset="1" stop-color="#1992c5"/>
    </linearGradient>
    <linearGradient id="linear-gradient3" x1="789.68" y1="986.61" x2="559.78" y2="1454.15" gradientTransform="translate(77.64 -391.16) scale(.6)" gradientUnits="userSpaceOnUse">
      <stop offset="0" stop-color="#f9bf69"/>
      <stop offset=".62" stop-color="#f7a32b"/>
      <stop offset=".68" stop-color="#f6a228"/>
      <stop offset="1" stop-color="#f37c25"/>
    </linearGradient>
    <linearGradient id="linear-gradient4" x1="939.09" y1="1460.51" x2="468.38" y2="1477.24" gradientTransform="translate(77.64 -391.16) scale(.6)" gradientUnits="userSpaceOnUse">
      <stop offset="0" stop-color="#2d96cf"/>
      <stop offset=".95" stop-color="#73c1e3"/>
    </linearGradient>
    <linearGradient id="linear-gradient5" x1="646.19" y1="1499.52" x2="626.97" y2="1714.66" gradientTransform="translate(77.64 -391.16) scale(.6)" gradientUnits="userSpaceOnUse">
      <stop offset="0" stop-color="#1666ad"/>
      <stop offset="1" stop-color="#338ec9"/>
    </linearGradient>
    <linearGradient id="linear-gradient6" x1="755.27" y1="1228.59" x2="680.43" y2="1307.84" gradientTransform="translate(-18.83 -556.56) scale(.74)" gradientUnits="userSpaceOnUse">
      <stop offset="0" stop-color="#3eb7dc"/>
      <stop offset="1" stop-color="#0a88bf"/>
    </linearGradient>
    <linearGradient id="linear-gradient7" x1="523.69" y1="1193.94" x2="555.29" y2="1535.48" gradientTransform="translate(-18.83 -556.56) scale(.74)" gradientUnits="userSpaceOnUse">
      <stop offset="0" stop-color="#3ebae0"/>
      <stop offset="1" stop-color="#0f8ac0"/>
    </linearGradient>
    <linearGradient id="linear-gradient8" x1="981.89" y1="1162.87" x2="691.24" y2="1566.02" gradientTransform="translate(-18.83 -556.56) scale(.74)" gradientUnits="userSpaceOnUse">
      <stop offset="0" stop-color="#fbb152"/>
      <stop offset="1" stop-color="#f77f1f"/>
    </linearGradient>
    <linearGradient id="linear-gradient9" x1="856.7" y1="1218.82" x2="632.6" y2="1599.8" gradientTransform="translate(-18.83 -556.56) scale(.74)" gradientUnits="userSpaceOnUse">
      <stop offset="0" stop-color="#faa645"/>
      <stop offset="1" stop-color="#f5771a"/>
    </linearGradient>
    <linearGradient id="linear-gradient10" x1="806.34" y1="994.53" x2="635.17" y2="1175.8" xlink:href="#linear-gradient6"/>
  </defs>
  <g id="Generative_Object" class="st25">
    <path class="st27" d="M218.72,378.96c-.06,1.14-1.59.26-1.88.94s.97,1.21.63,2.19c-1.76-.85-6.55-4.31-8.14-2.82,12.39,5.87,21.61,18.53,28.18,30.37,21.09,37.99,31.53,89.26,48.22,128.69.14.32-.08,3.59,0,3.76.28.65,1.59-.02,1.88.63.36.8.52,4.78.63,5.01,20.58,44.61,49.87,79.28,98.94,95.5,14.36,4.75,30.55,7.8,45.71,5.32-8.6-2.87-17.58-5.04-25.99-8.45-87.85-35.69-97.74-141.88-141.84-214.17,28.3,39.15,45.82,95.56,81.72,126.5,15.75,13.58,35,22.21,52.6,32.56,1.08.64,1.46,3.77,3.13,5.01,26.4,19.62,96.99,20.53,122.43-1.88,27.26-10.3,50.18-29.52,66.07-53.86.15,2.21-1.77,4.4-2.82,6.26-1.37,2.44-2.86,5.2-4.38,7.51-8.66,13.18-24.54,30.32-36.95,40.08-50.1,39.42-121.67,27.98-170.65-7.51-8.1-5.87-15.25-13.83-22.86-19.41-3.6-2.64-2.85-.86-1.25,2.82,9.36,21.49,49.5,56.97,71.7,64.81,24.35,8.6,74.45,9.34,96.75-5.01,13.27-6.63,27.66-13.68,38.2-24.42l14.4-11.59c-11.98,15.94-27.83,27.44-44.46,37.89.53-1.63-1.86-.77-2.19-.63-5.5,2.47-11.42,7.19-16.91,10.02-92.07,47.34-198.91,29.77-242.04-79.22-.5-1.26-.46-1.93-1.88-.94-13.58-39.9-23.11-81.19-36.32-121.17-4.95-14.98-11.2-42.85-26.61-48.53-24.7-9.11-51.21,5.69-63.87,26.93-1.75-1.07,3.16-21.96,4.07-25.05,2.12,2.08-1.9,7.48-1.25,10.33l4.38-3.44c-.67,1.1-7.76,13.33-5.95,13.78,13.7-28.73,49.73-38.75,78.59-28.81Z"/>
    <path class="st18" d="M217.47,363.93c5.52,7.79,17.49,9.62,23.8,17.22l-1.25.63.94,1.57c5.25-.06,21.68,18.71,23.17,18.79.33.02,5.82-2.51,5.95-2.82.16-.37-5.81-4.94-4.7-6.58,9.26,10.83,19.04,21.99,26.61,34.13,1.9,3.05,5.57,7.89,6.89,10.65.13.27-1.17,2.42-.63,3.76,1.7,4.21,11.65,12.7,15.97,14.09,1.55.5,5.32-.49,6.89,0s5.46,8.36,6.89,10.02c-.12-2.61-2.67-6.22-4.07-8.45-11.61-18.49-24.93-36.3-39.45-52.6l2.82-1.57c1.07,1.17,2.18,2.17,3.44,3.13,19.84,15.02,49.99,72.36,66.38,95.5,38.13,53.82,102.45,107.68,168.45,57.93l4.38,4.7c-27.55,28.33-63.81,33.31-99.88,18.47-3.4-1.4-18.31-10.55-19.41-10.65-.3-.03-4.52,2.41-5.32,2.82-.57,2.23,18.14,11.15,20.98,12.21,21.8,8.18,46.59,9.44,68.88,2.5,2.75-.86,8.42-5.57,10.96-3.44,3.2,2.69-1.32,5.52,8.14,1.57-43.59,25.16-99.74,7.95-136.52-21.29,1.37-1.33,2.78-7.84,2.5-9.08-.34-1.51-20.88-20.84-22.23-21.6-.3-.17-2.78.85-6.26-1.25-2.76-1.67-17.01-18.11-17.85-20.98-1.78-6.08,1.26-6.02,1.25-7.51,0-.49-5.49-7.64-5.95-7.83-.42-.17-8.17.05-9.08.63-23.86-36.15-59.32-105.1-101.45-119.61-28.87-9.94-64.89.08-78.59,28.81-1.81-.45,5.28-12.67,5.95-13.78,1.47-2.43,2.62-4.05,4.38-6.26,17.36-21.77,40.12-27.39,67.01-23.8Z"/>
    <path class="st15" d="M479.23,666.4c-7.74,16.25-13.97,29.28-32.25,36.32s-94.3,6.49-113.35-.63c-36.7-13.71-45.39-68.76-55.42-102.7,6.4,6.1,10.91,14.72,16.91,21.6,51.3,58.91,109.76,56.52,180.67,44.78,1.47-.24,2.51-.78,3.44.63Z"/>
    <path class="st2" d="M320.17,498.57c17.93,27.17,31.7,47.03,57.61,67.63,36.78,29.24,92.93,46.45,136.52,21.29,12.28-7.09,20.65-15.89,27.87-28.18-2.81,9.1-10.08,22.51-17.22,28.81-25.43,22.41-96.02,21.5-122.43,1.88-1.68-1.24-2.05-4.37-3.13-5.01-17.6-10.35-36.85-18.99-52.6-32.56-35.9-30.94-53.43-87.35-81.72-126.5-14.61-20.22-24.43-32.65-47.59-43.84.34-.99-.92-1.51-.63-2.19s1.82.2,1.88-.94c42.13,14.51,77.59,83.46,101.45,119.61Z"/>
    <path class="st19" d="M486.12,648.86c-1.59,2.14-5.1,13.77-6.89,17.53-.94-1.41-1.97-.87-3.44-.63-70.91,11.74-129.37,14.13-180.67-44.78-5.99-6.88-10.51-15.51-16.91-21.6-3.07-10.38-6.23-20.78-8.77-31.31,6.05,14.84,19.89,35.36,30.69,47.28,46.05,50.84,124.39,57.96,185.99,33.5Z"/>
    <path class="st29" d="M528.7,625.69c-6.4,4.02-41.14,21.22-42.58,23.17-61.59,24.45-139.94,17.34-185.99-33.5-10.8-11.92-24.63-32.44-30.69-47.28-1.79-4.38-2.28-8.82-3.76-13.15,1.42-.99,1.38-.32,1.88.94,43.12,108.98,149.97,126.56,242.04,79.22,5.49-2.82,11.4-7.55,16.91-10.02.33-.15,2.72-1,2.19.63Z"/>
    <path class="st14" d="M558.76,599.39c-10.54,10.74-24.93,17.8-38.2,24.42.86-.56,4.18-3.51,2.5-4.38,26.83-11.94,50.76-37.18,62-64.19.23-.56-.21-4.29,2.5-5.32-5.53,17.47-15.86,36.29-28.81,49.47Z"/>
    <path class="st2" d="M217.47,382.09c23.16,11.19,32.98,23.62,47.59,43.84,44.1,72.28,53.99,178.48,141.84,214.17,8.41,3.42,17.39,5.59,25.99,8.45-15.16,2.48-31.35-.58-45.71-5.32-1.46-2.92-6.7-3.08-9.08-4.38-.66-.36,1.04-1.3,0-1.88-2.09-1.17-5.02-1.59-7.51-3.13-87.43-53.9-75.02-144.73-128.06-219.49-1.07-1.5-3.07-4.35-5.01-4.7-6.57-11.84-15.79-24.5-28.18-30.37,1.59-1.5,6.38,1.97,8.14,2.82Z"/>
    <path class="st2" d="M387.17,643.23c-49.07-16.22-78.36-50.89-98.94-95.5-.11-.23-.27-4.21-.63-5.01-.29-.65-1.6.02-1.88-.63-.08-.17.14-3.44,0-3.76-16.69-39.43-27.13-90.7-48.22-128.69,1.94.35,3.94,3.19,5.01,4.7,53.04,74.76,40.64,165.59,128.06,219.49,2.49,1.54,5.42,1.97,7.51,3.13,1.04.58-.66,1.52,0,1.88,2.38,1.31,7.63,1.46,9.08,4.38Z"/>
    <path class="st2" d="M353.36,561.19c38.53,54.4,104.31,87.35,169.71,58.24,1.68.87-1.64,3.83-2.5,4.38-22.3,14.35-72.4,13.61-96.75,5.01-22.21-7.85-62.34-43.32-71.7-64.81-1.6-3.68-2.35-5.46,1.25-2.82Z"/>
    <path class="st11" d="M546.86,588.12c12.41-9.76,28.29-26.9,36.95-40.08.99,1.23-.01,3.03-.63,4.07-8.56,14.44-22.14,28.49-35.38,38.51l-.94-2.5Z"/>
    <path class="st32" d="M377.78,566.2c-25.91-20.6-39.68-40.46-57.61-67.63.91-.57,8.66-.8,9.08-.63.46.18,5.95,7.34,5.95,7.83,0,1.49-3.03,1.44-1.25,7.51.84,2.87,15.08,19.31,17.85,20.98,3.48,2.1,5.96,1.08,6.26,1.25,1.35.77,21.89,20.09,22.23,21.6.28,1.24-1.13,7.75-2.5,9.08Z"/>
    <g>
      <path class="st2" d="M359.62,494.81c-5.04-7.29-10.51-16.22-15.66-24.42.56-5.64-3.69-11.9-6.26-16.91-21.96-53.32-70.93-142.78-141.84-120.86-16.47,5.09-30.79,18.56-41.02,31.94-.06.08-1.04-.21-1.88.94-1.3,1.79-2.08,7.35-5.01,8.45,1.31-10.49,24.53-39.16,33.5-45.71,20.85-15.23,56.96-15,82.04-13.15,41.7,3.07,49.19,29.18,60.43,63.56,12.55,38.39,21.87,78.41,35.69,116.16Z"/>
      <path class="st12" d="M337.7,453.48c2.57,5.01,6.83,11.27,6.26,16.91-15.64-24.94-26.44-46.55-45.71-69.51-28.38-33.82-61.47-59.81-108.65-47.59-14.77,3.82-29.62,12.96-40.7,23.17-.64.29-.94-1.77-.94-1.88,0-.2-.02-.43,0-.63,2.93-1.1,3.71-6.67,5.01-8.45.84-1.15,1.81-.86,1.88-.94.1,1.74-.79,2.27,1.25.94,10.97-7.13,18.19-15.71,31.62-20.35,74.42-25.73,121.81,53.41,149.98,108.34Z"/>
      <path class="st2" d="M298.25,400.88c-1.27.41-.64,1.41-2.19.63-3.56-1.79-17.42-17.11-23.17-21.29-32.95-23.95-88.32-37.65-118.67-2.19-1.81,2.12-8.87,9.59-3.76,9.71-1.76,2.21-2.91,3.84-4.38,6.26l-4.38,3.44c-.65-2.85,3.37-8.26,1.25-10.33,1.25-4.24,3.18-8.5,5.01-12.52,0,.1.3,2.17.94,1.88,11.09-10.21,25.94-19.35,40.7-23.17,47.18-12.21,80.27,13.78,108.65,47.59Z"/>
      <path class="st6" d="M290.73,405.89c-1.26-.96-2.38-1.96-3.44-3.13l-2.82,1.57c14.52,16.3,27.84,34.12,39.45,52.6,1.4,2.23,3.95,5.84,4.07,8.45-1.42-1.66-5.35-9.53-6.89-10.02s-5.34.5-6.89,0c-4.32-1.39-14.27-9.88-15.97-14.09-.54-1.34.76-3.48.63-3.76-1.31-2.76-4.98-7.59-6.89-10.65-7.58-12.14-17.35-23.3-26.61-34.13-1.11,1.64,4.85,6.2,4.7,6.58-.13.3-5.62,2.83-5.95,2.82-1.49-.07-17.92-18.84-23.17-18.79l-.94-1.57,1.25-.63c-6.31-7.6-18.27-9.43-23.8-17.22,28.83,3.85,54.61,20.16,73.27,41.96Z"/>
      <path class="st4" d="M337.7,453.48c-28.17-54.92-75.56-134.06-149.98-108.34-13.44,4.65-20.65,13.22-31.62,20.35-2.04,1.33-1.16.8-1.25-.94,10.22-13.38,24.55-26.85,41.02-31.94,70.91-21.92,119.88,67.55,141.84,120.86Z"/>
      <g>
        <path class="st33" d="M549.36,341.39c-29.73,17.72-48.32,44.51-65.13,73.89-12.68,22.16-21.53,43.73-32.56,66.38-6.72,13.78-12.69,28.19-20.04,41.64-2.39,4.37-18.11,26.5-18.16,28.18-.06,1.81,7.13,6.38,9.39,5.32,1.41,3.91,11.41,7.53,15.03,8.14,5.27.89,11.17-5.53,15.34-9.39,49.02-45.39,64.05-152.15,127.12-178.47,2.88-1.2,6.74-3.31,9.71-1.88-26.36,10.95-45.28,44.34-56.99,69.2-20.97,44.51-32.34,107.03-85.79,123.37,4.21,2.41,9.14,2.36,13.78,2.82,21.82,2.14,44.62-2.35,62-15.66,7.06-1.89,12.53-9.41,19.41-12.21-5.62,5.34-10.7,11.92-16.91,16.59-66.01,49.76-130.33-4.11-168.45-57.93-16.39-23.14-46.54-80.48-66.38-95.5-18.66-21.8-44.44-38.11-73.27-41.96-26.88-3.59-49.64,2.02-67.01,23.8-5.12-.12,1.94-7.59,3.76-9.71,30.35-35.46,85.72-21.75,118.67,2.19,5.75,4.18,19.61,19.5,23.17,21.29,1.55.78.92-.21,2.19-.63,19.27,22.96,30.07,44.57,45.71,69.51,5.15,8.21,10.62,17.14,15.66,24.42,13.21,19.12,27.76,38.16,46.34,52.29l77.03-197.89c5.93-12.16,16.76-26.19,29.75-31,14.25-5.27,86.48-4.89,100.82.63,19.09,7.34,36.07,32.57,36.95,52.6-3.05-1.23-.68-2.52-.94-3.44-13.34-48.14-63.2-48.66-100.2-26.61Z"/>
        <path class="st8" d="M623.26,368.94c3.66,1.15,6.24,2.03,9.71,3.76,1.94.97,8.88,6.78,10.33,6.89.21.02.42-.01.63,0,.93,2.08,2.61,3.7,3.76,5.64.46.77,3.29,4.49,2.19,5.01-14.63-22.84-49.91-22.78-64.81-.31-4.57,6.89-6.24,15.59-10.02,22.86.02-.08-1.06.04-.63-1.57.48-1.8,3.24-5.86,3.76-8.14-1.9-3.24-8.69,14.4-9.39,15.97-24.67,54.58-37.94,140.18-107.71,151.55-4.64-.46-9.56-.41-13.78-2.82,53.45-16.33,64.83-78.86,85.79-123.37,11.71-24.86,30.62-58.25,56.99-69.2,2.06-.86,11.64-2.88,11.9-3.44,1.75-3.87-7.27-1.74-9.39-1.57l30.69-1.25Z"/>
        <path class="st2" d="M643.3,379.59c-1.46-.11-8.39-5.92-10.33-6.89-3.46-1.73-6.04-2.61-9.71-3.76-17.33-5.45-30.84-3.41-46.97,4.38-66.19,32-81.75,146.06-138.4,191.62-3.62-.61-13.62-4.23-15.03-8.14,1.75-.82,18.28-19.32,20.67-22.23,19.95-24.31,34.26-52.59,50.72-79.22,20-32.35,40.93-70.55,77.03-87.67,24.8-11.76,54.59-12.23,72.02,11.9Z"/>
        <path class="st18" d="M571.28,367.69c-36.1,17.13-57.03,55.32-77.03,87.67-2.87.25-6.96-4.12-9.71-3.13-1.09.39-10.08,17.38-11.59,19.73-2.22-.08-.93-1.86-.63-2.82,3.02-9.47,7.69-20.06,11.9-29.12,3.88-8.36,9.75-16.7,12.84-24.74-2.15,1.28-10.56,1.58-12.84,0,16.81-29.38,35.4-56.18,65.13-73.89,1.78,1.66,2.94,18.22,2.5,19.1s-13.69,9.59-15.97,11.59c-5.98,5.22-11.55,11.04-17.22,16.59,0,1.13,6.99,5.44,7.83,5.32,1.05-.14,12.1-13.53,14.4-15.66,7.31-6.74,21.67-21.33,30.37-10.65Z"/>
        <path class="st15" d="M566.9,435.95c-14.13,39.81-30.05,79.04-43.84,118.98-17.38,13.31-40.17,17.8-62,15.66,69.77-11.37,83.04-96.97,107.71-151.55l3.13.94c-2.22,4.31-4.03,9.21-5.64,13.78-.18.51-.99,2.66.63,2.19Z"/>
        <path class="st18" d="M647.68,385.22c-1.15-1.93-2.83-3.56-3.76-5.64.6.04,1.99-2.35,3.76-.94.25,1.86,3.34,6.02,0,6.58Z"/>
        <path class="st11" d="M494.26,455.36c-16.46,26.63-30.77,54.9-50.72,79.22-2.39,2.91-18.91,21.41-20.67,22.23-2.26,1.06-9.45-3.51-9.39-5.32.05-1.68,15.77-23.81,18.16-28.18,7.35-13.45,13.32-27.86,20.04-41.64,3.88.36,8.49-15.55,10.33-16.28,1.62-.64,8.07,3.85,10.33,3.76-.31.96-1.6,2.74.63,2.82,1.5-2.35,10.5-19.34,11.59-19.73,2.75-.99,6.84,3.38,9.71,3.13Z"/>
        <path class="st29" d="M590.07,375.2c-2.97-1.43-6.83.68-9.71,1.88-63.08,26.33-78.1,133.08-127.12,178.47-4.17,3.86-10.07,10.29-15.34,9.39,56.65-45.57,72.2-159.63,138.4-191.62,5.47-.98,10.64-2.68,16.28-3.13,2.13-.17,11.15-2.3,9.39,1.57-.26.56-9.84,2.59-11.9,3.44Z"/>
        <path class="st32" d="M472.34,469.14c-2.26.09-8.72-4.39-10.33-3.76-1.85.73-6.45,16.65-10.33,16.28,11.04-22.65,19.89-44.22,32.56-66.38,2.28,1.58,10.69,1.28,12.84,0-3.09,8.03-8.96,16.38-12.84,24.74-4.21,9.06-8.88,19.65-11.9,29.12Z"/>
        <path class="st27" d="M623.26,368.94l-30.69,1.25c-5.64.45-10.81,2.15-16.28,3.13,16.13-7.8,29.64-9.83,46.97-4.38Z"/>
      </g>
    </g>
    <g>
      <path class="st18" d="M587.56,549.92c-2.71,1.03-2.27,4.77-2.5,5.32-11.24,27.01-35.17,52.25-62,64.19-65.4,29.11-131.18-3.83-169.71-58.24,7.61,5.58,14.76,13.54,22.86,19.41,48.98,35.5,120.54,46.93,170.65,7.51l.94,2.5c13.24-10.02,26.82-24.07,35.38-38.51.62-1.04,1.62-2.84.63-4.07,1.52-2.32,3.02-5.08,4.38-7.51,4.2-.2-.14,7.85-.63,9.39Z"/>
      <path class="st6" d="M540.91,596.89c8.58-.71-2.03,7.49-3.76,8.77-23.58,17.48-59.98,19.69-87.98,14.72l2.19-3.44c23.04,3.69,48.82,3.46,70.14-6.89,3.66-1.77,18.24-13.05,19.41-13.15Z"/>
    </g>
  </g>
  <g id="Generative_Object1" data-name="Generative_Object">
    <path class="st0" d="M294.98,763.27c127.7,101.95,222.23-23.51,266.31-161.39,1.71-4.13,2.84-8.36,4.41-12.41,1.78-4.57,6.76-12.47,4.41-17.73,29.55-96.38,79.88-340.38,139.04-399.03,73.26-72.62,196.35-32.13,284.7-39.9-73.56,176.72-144.72,355.32-223.64,528.49-108.24,195.35-317.57,244.81-475.24,101.97Z"/>
    <path class="st17" d="M913.67,353.6c-30.88,87.49-56.23,182.6-89.02,268.68-32.51,85.37-76.4,162.96-143.46,213.7-143.99,108.96-322.25,64.39-428.89-89.56.55-5.28,1.97-2.01,3.68-.89,9.59,6.33,34.85,41.33,48.55,53.2,104.57,90.63,244.87,93.62,354.59,14.19,136.08-98.51,180.15-301.81,254.54-459.33Z"/>
    <path class="st31" d="M294.98,763.27c-30.21-24.12-57.29-60.57-76.51-97.54,14.74,9.68,9.15,26.54,26.48,3.55,109.83,174.7,245.64,103.63,316.34-67.39-44.08,137.87-138.61,263.34-266.31,161.39Z"/>
    <path class="st17" d="M244.95,669.28c-17.33,23-11.75,6.13-26.48-3.55-10.08-19.39-18.67-40.33-26.48-61.18-28.34-75.65-49.02-156.67-75.77-233.21,33.22,74.41,59.45,154.04,93.43,227.89,10.41,22.61,22.45,49.59,35.31,70.05Z"/>
    <path class="st31" d="M565.7,589.47c1.34-4.27,2.5-11.5,4.41-17.73,2.35,5.26-2.64,13.17-4.41,17.73Z"/>
    <g>
      <path class="st13" d="M30.87,130.14c66.02,6.3,144.3-9.17,208.93,1.77,47,7.96,89.44,47.93,112.56,96.65,48.06,153.14,87.95,310.37,133.89,464.65-97.67,111.04-207.31,25.71-263.37-92.22C152.76,453.48,98.78,285.76,30.14,136.35l.74-6.21Z"/>
      <path class="st1" d="M475.22,674.6c1.02,0,8.22,15.89,8.09,16.85-1.63,12.45-60.75,50.7-75.04,44.34,26.21-13.54,49.63-33.84,66.95-61.18Z"/>
    </g>
  </g>
  <g id="Generative_Object2" data-name="Generative_Object" class="st25">
    <g>
      <path class="st30" d="M502.3,661.85c8.3-.52,31.96.16,39.29,2.42,6.74,2.08,3.26,5.21,3.32,10.58,0,.29,3.37,1.62.3,2.72-12.57,4.53-46.64,3.15-59.24,1.21-2.29-.35-5.63-2.47-8.46-1.81,6.67.79-.67-10.07,3.63-12.09.67-.31,12.88-2.23,14.51-2.42,1.94-.22,5.34-.52,6.65-.6Z"/>
      <g>
        <path class="st24" d="M672.46,470.83c-19.19,26.18-40.18,57.14-71.63,69.52-89.01,35.03-216.81-68.87-283.81-120.29l-63.47-122.41,98.23-.3c20.33,3.21,36.02,13.75,46.85,31.13l99.74,192.23c5.32,8.61,16.41,8.41,21.76,0l99.74-192.23c30.3-49.06,96.31-25.62,144.17-31.74l1.51.91c-31.31,57.57-62.44,115.25-93.09,173.19Z"/>
        <path class="st5" d="M505.92,301.58c70.82-3.34,77.91,104.21,8.46,110.02-75.1,6.28-78.93-106.69-8.46-110.02Z"/>
        <g>
          <path class="st21" d="M639.21,571.78c-1.8.14-3.32,2.52-4.84,3.63-114.2,83.44-259.68-46.28-331.26-131.17-12.54-14.87-24.15-30.66-35.36-46.55,103.25,102.09,302.36,298.84,414.98,95.21,5.23-9.46,9.18-19.74,14.21-29.32-5,30.31-18.11,60.4-36.57,84.93-6.38,8.48-15.16,15.63-21.16,23.27Z"/>
          <path class="st22" d="M317.02,420.06c66.99,51.42,194.79,155.32,283.81,120.29,31.45-12.38,52.45-43.34,71.63-69.52-50.11,94.7-97.27,122.63-202.5,71.93-43.15-20.79-89.12-56.03-125.73-87.05-26.43-22.39-50.23-47.45-75.56-71.03,16.89,10.53,32.58,23.25,48.36,35.36Z"/>
          <path class="st30" d="M344.22,455.72c36.61,31.02,82.58,66.26,125.73,87.05-3.67,4.71-15.35-4.7-20.25-7.25-23.95-12.49-42.4-26.89-65.28-44.13-1.72-1.3-5.22-1.04-5.44-1.21-3.7-2.7-8.97-10.21-12.69-13.3-4.85-4.02-11.37-7.33-16.32-12.09-.79-.76-9.81-9.5-5.74-9.07Z"/>
          <g>
            <path class="st23" d="M634.38,575.41c-1.52,4.92-4.5,12.89-10.28,12.39,0,.74,3.63-.17,4.23.6,1.04,1.33-15.65,25.54-14.51,30.53-8.22,13.42-19.45,25.39-34.76,30.83-18.1,6.43-95.45,5.12-117.87,3.63s-42.52-11.58-54.71-29.92c-27.87-41.96-49.05-96.44-76.17-140.24-8.34-13.48-18.76-25.58-27.2-38.99,71.57,84.9,217.06,214.61,331.26,131.17Z"/>
            <g>
              <path class="st16" d="M639.21,571.78c-9.85,12.55-16.7,32.96-25.39,47.15-1.14-4.99,15.55-29.19,14.51-30.53-.6-.77-4.23.14-4.23-.6,5.77.5,8.76-7.47,10.28-12.39,1.51-1.11,3.04-3.49,4.84-3.63Z"/>
              <path class="st16" d="M582.99,606.84c-.16.08-.58,2.16-2.12,3.02-4.94,2.76-14.68-.26-20.85.3,0-.75,8.45.02,9.37-.3.72-.25,1.3-2.55,2.42-3.02,2.76-1.16,8.08.16,11.18,0Z"/>
              <path class="st16" d="M544.31,609.26c-10.78-1.25-20.97-2.52-31.13-5.44-.15-.04-.95-2.17-1.81-2.42-4.36-1.23-11.14-1.15-15.72-1.21,2.16-1.2,1.75-1.56.6-3.63-2.06-.84-4.27-.32-6.35-.6.06,0-.2-1.18.3-1.21,7.93-.47,7.23,4.46,7.86,4.84s12.14.51,14.51,1.21c.56.17,7.65,5.08,9.67,5.44,2.87.51,11.67-.9,12.69-.6.77.22,1.1,2.28,1.81,2.42,2.41.47,5.06.71,7.56,1.21Z"/>
              <path class="st16" d="M556.4,610.47c-4.86-.29-7.16-.21-12.09-1.21,4.12.48,7.97-.08,12.09,1.21Z"/>
              <path class="st16" d="M489.9,595.96c-4.88.18-6.49,2.2-10.28-2.72l3.32.3-.91.91c1.75,2.61,5.08,1.13,7.86,1.51Z"/>
              <path class="st16" d="M613.52,592.94c3.44-.45,2.13.47,3.32,2.72-1.99.22-.86-2.9-3.32-2.72Z"/>
              <path class="st16" d="M587.83,606.24c-1,1.14-3.41.53-4.84.6,1.87-.96,2.96-.49,4.84-.6Z"/>
              <path class="st16" d="M599.92,601.4c-.12-.01-1.23,1.59-2.42-.3,1.21-1.8,1.29.15,2.42.3Z"/>
              <path class="st16" d="M599.92,601.4c.15.02,1.85-1.67,3.02.3-1.03.78-1.85-.17-3.02-.3Z"/>
              <path class="st16" d="M611.71,596.57c1.07.12,2.41-.32,3.32.3,0,.3-3.58.84-3.32-.3Z"/>
              <path class="st16" d="M605.06,599.59c.6.07,2.7-.23,2.72.3-.33.4-3.2.74-2.72-.3Z"/>
              <path class="st16" d="M594.18,602.01c.6.07,2.7-.23,2.72.3-.33.4-3.2.74-2.72-.3Z"/>
              <path class="st16" d="M621.08,589.92c.09-.02.72-1.37,1.81-.3-.44.62-1.29.14-1.81.3Z"/>
              <path class="st16" d="M621.08,589.92c-.09.02-.72,1.37-1.81.3.44-.62,1.29-.14,1.81-.3Z"/>
              <path class="st16" d="M587.83,606.24c.09,0,.68-1.37,1.81-.3l-1.81.3Z"/>
              <path class="st16" d="M556.4,610.47c.52.16,1.38-.32,1.81.3-1.14,1.07-1.72-.3-1.81-.3Z"/>
            </g>
          </g>
        </g>
      </g>
    </g>
  </g>
  <g id="Generative_Object3" data-name="Generative_Object" class="st25">
    <path class="st28" d="M504.21,327.57c65.38-6.2,73.09,90.98,13.25,97.91-69.31,8.03-75.26-92.03-13.25-97.91Z"/>
    <g>
      <path class="st20" d="M455.26,577.13c-4.04-1.97-8.8-2.61-12.88-4.42-42.48-18.87-99.45-124.44-127.72-166-10.69-15.71-22.06-31.03-32.76-46.75,32.11,53.05,65.93,105.37,93.12,161.22-2.39-2.2-7.21-5.71-10.31-6.63-.37-.11-1,.06-1.47,0-36.7-62.6-73.33-125.27-109.69-188.09l96.07-.37c12.02,2.93,20.98,9.75,28.34,19.51l123.68,208.33c-11.69,13.02-28.65,22.31-46.38,23.19Z"/>
      <path class="st7" d="M455.26,577.13c-48.4,2.41-53.42-31.21-80.24-55.95-27.2-55.85-61.02-108.17-93.12-161.22,10.7,15.71,22.07,31.03,32.76,46.75,28.28,41.56,85.24,147.13,127.72,166,4.08,1.81,8.85,2.45,12.88,4.42Z"/>
    </g>
    <g>
      <path class="st10" d="M732.79,382.05c-3.79-1.72-6.15-2.07-10.31-2.21-62.18-2.12-121.48,123.73-156.8,166.74-29.5,35.93-71.62,59.46-119.26,46.01-9.54-2.69-23.58-9.21-29.81-16.93,2.79,2.39,5.89,2.75,9.2,3.68,25.37,7.11,42.67,7.59,65.89-6.63,48.77-29.87,111.29-173.63,149.07-226.37,7.57-10.56,16.44-16.97,29.08-20.24h95.7c-9.44,19.45-21.83,37.36-32.76,55.95Z"/>
      <path class="st9" d="M729.85,387.2c-41.69,70.9-82.57,142.3-124.41,213.12-35.65,52.49-107.55,66.09-160.85,31.29-34.77-22.7-60.21-80.99-81.35-117.05.47.06,1.1-.11,1.47,0,6.07,11.38,14.38,21.41,22.08,31.65,21.56,28.65,40.92,56.47,79.87,61.84,103.88,14.31,143.38-119.5,199.13-181.46,15.21-16.9,40.01-41.42,64.05-39.38Z"/>
      <path class="st34" d="M732.79,382.05c-.99,1.68-1.94,3.45-2.94,5.15-24.04-2.03-48.84,22.48-64.05,39.38-55.75,61.96-95.25,195.77-199.13,181.46-38.96-5.37-58.32-33.19-79.87-61.84,11.47,13.12,22.85,25.66,39.02,33.13-3.31-.93-6.41-1.29-9.2-3.68,6.24,7.72,20.28,14.24,29.81,16.93-1.6,1.61,2.81,2.82,3.31,2.94,95.4,23.42,138.42-84.91,182.94-146.13,21.92-30.14,50.9-64.05,89.81-69.57,4.16.14,6.51.49,10.31,2.21Z"/>
      <path class="st26" d="M722.48,379.84c-38.91,5.52-67.89,39.42-89.81,69.57-44.51,61.22-87.54,169.55-182.94,146.13-.5-.12-4.91-1.34-3.31-2.94,47.64,13.45,89.75-10.08,119.26-46.01,35.32-43.01,94.62-168.86,156.8-166.74Z"/>
    </g>
  </g>
  <path class="st3" d="M499.38,129.13c149.55-14.18,167.19,208.09,30.31,223.95-158.54,18.36-172.13-210.5-30.31-223.95Z"/>
</svg>